<?xml version="1.0" standalone="no"?>
<!DOCTYPE svg PUBLIC "-//W3C//DTD SVG 20010904//EN"
 "http://www.w3.org/TR/2001/REC-SVG-20010904/DTD/svg10.dtd">
<svg version="1.0" xmlns="http://www.w3.org/2000/svg"
 width="700.000000pt" height="700.000000pt" viewBox="0 0 700.000000 700.000000"
 preserveAspectRatio="xMidYMid meet">
<metadata>
Created by potrace 1.11, written by Peter Selinger 2001-2013
</metadata>
<g transform="translate(0.000000,700.000000) scale(0.100000,-0.100000)"
fill="#000000" stroke="none">
<path d="M4348 6979 c-38 -28 -41 -57 -41 -326 0 -199 2 -236 17 -257 41 -64
134 -66 167 -4 8 15 12 95 13 238 3 321 -5 352 -89 363 -30 4 -47 1 -67 -14z"/>
<path d="M2590 6248 c-43 -29 -56 -68 -39 -111 7 -17 81 -99 164 -183 226
-227 248 -239 316 -174 47 45 48 66 2 133 -31 44 -225 242 -304 310 -64 53
-90 58 -139 25z"/>
<path d="M6124 6251 c-32 -20 -290 -271 -342 -334 -38 -45 -42 -92 -12 -130
30 -38 70 -48 111 -29 45 22 351 330 372 375 24 49 22 62 -18 102 -40 39 -66
43 -111 16z"/>
<path d="M4087 6064 c-174 -37 -301 -81 -443 -155 -78 -40 -185 -104 -219
-131 -214 -166 -288 -245 -471 -507 -2 -2 -46 15 -99 38 -54 23 -140 53 -193
68 -88 23 -115 26 -287 27 -165 1 -202 -2 -280 -21 -200 -50 -365 -131 -520
-257 -227 -184 -392 -487 -438 -806 -5 -29 -17 -38 -60 -45 -285 -47 -514
-162 -713 -360 -135 -134 -206 -243 -277 -420 -31 -78 -44 -122 -63 -210 -15
-73 -22 -331 -10 -415 7 -53 25 -129 43 -185 28 -87 124 -290 153 -323 8 -9
35 -43 59 -75 135 -178 350 -326 590 -408 186 -64 115 -60 1513 -66 919 -3
1282 -1 1297 7 55 29 66 130 19 174 l-25 22 -1084 2 c-1445 4 -1484 5 -1590
32 -296 79 -557 296 -688 574 -64 138 -83 224 -86 396 -2 117 2 176 15 240 60
290 233 525 502 681 147 85 218 105 467 134 117 14 130 32 146 200 7 82 16
126 37 200 102 349 411 632 777 711 86 19 266 26 332 14 24 -5 61 -11 81 -14
58 -9 199 -61 264 -96 253 -140 437 -367 519 -642 24 -78 31 -120 40 -243 10
-127 15 -163 29 -203 64 -180 221 -324 396 -362 31 -6 166 -13 305 -15 308 -5
398 -12 488 -36 269 -75 492 -294 563 -554 24 -90 30 -302 10 -395 -52 -247
-256 -479 -499 -569 -115 -42 -179 -50 -477 -56 -193 -4 -235 -10 -257 -37
-20 -24 -26 -67 -13 -99 24 -58 49 -63 315 -65 253 -1 330 6 452 46 129 41
283 129 385 219 129 114 270 366 303 541 11 61 15 313 5 364 -10 47 -9 50 17
70 161 125 310 287 416 452 107 168 210 435 233 603 3 25 8 55 11 66 2 11 7
101 10 200 4 167 -3 270 -31 401 -28 132 -157 433 -238 553 -65 96 -98 130
-132 136 -42 8 -90 -15 -110 -53 -19 -37 -5 -75 72 -201 197 -322 261 -594
228 -968 -30 -344 -225 -718 -496 -953 l-58 -50 -36 65 c-122 217 -319 381
-564 469 -125 45 -180 50 -657 60 -247 6 -286 16 -362 99 -75 82 -88 123 -108
341 -8 87 -40 231 -70 316 -66 180 -151 316 -292 459 l-102 105 20 37 c79 156
297 366 509 493 158 94 408 178 570 192 132 12 357 6 440 -11 14 -3 46 -10 72
-15 126 -25 336 -115 466 -199 147 -96 196 -106 239 -53 27 32 30 87 8 120
-39 55 -255 187 -405 247 -96 38 -285 95 -370 111 -19 3 -136 7 -260 9 -204 2
-235 0 -333 -21z"/>
<path d="M6400 4495 c-46 -24 -67 -91 -45 -135 27 -52 46 -55 328 -53 l260 2
25 25 c19 18 25 35 26 69 1 94 -38 106 -344 106 -170 0 -231 -4 -250 -14z"/>
<path d="M5789 3043 c-77 -65 -61 -102 131 -294 155 -156 204 -197 241 -204
43 -8 108 49 109 96 0 41 -42 94 -188 236 -199 195 -235 215 -293 166z"/>
<path d="M2123 1559 c-46 -13 -70 -48 -165 -235 -153 -302 -163 -338 -109
-386 42 -38 90 -38 125 0 46 48 254 457 262 515 9 64 -53 122 -113 106z"/>
<path d="M3201 1523 c-31 -38 -261 -487 -261 -510 0 -20 41 -83 60 -93 36 -19
81 -12 109 18 42 46 254 457 265 515 5 27 -32 90 -59 101 -9 3 -32 6 -50 6
-27 0 -40 -8 -64 -37z"/>
<path d="M4339 1528 c-43 -47 -252 -469 -254 -515 -4 -68 50 -112 120 -99 41
8 60 38 177 272 138 278 142 292 94 340 -47 47 -95 47 -137 2z"/>
<path d="M2558 648 c-32 -11 -99 -124 -197 -331 -87 -183 -98 -217 -82 -255
14 -33 64 -63 96 -57 11 2 25 4 32 4 18 1 61 71 140 226 93 183 143 299 143
336 0 29 -39 78 -64 80 -6 0 -18 2 -26 3 -8 2 -27 -1 -42 -6z"/>
<path d="M3683 648 c-31 -15 -283 -495 -283 -540 0 -32 27 -86 47 -92 42 -12
77 -15 94 -6 25 14 75 99 180 310 102 203 116 257 82 297 -20 22 -63 44 -86
42 -7 0 -22 -5 -34 -11z"/>
</g>
</svg>
